<mxfile host="app.diagrams.net" modified="2023-10-02T21:30:36.024Z" agent="Mozilla/5.0 (Windows NT 10.0; Win64; x64) AppleWebKit/537.36 (KHTML, like Gecko) Chrome/117.0.0.0 Safari/537.36" etag="Cfwqe4IfLeGrGVU21RUG" version="21.7.4" type="device">
  <diagram name="PÃ¡gina-1" id="RSjrWRf-tF6wC8Tnjj4w">
    <mxGraphModel dx="2261" dy="782" grid="1" gridSize="10" guides="1" tooltips="1" connect="1" arrows="1" fold="1" page="1" pageScale="1" pageWidth="827" pageHeight="1169" math="0" shadow="0">
      <root>
        <mxCell id="0" />
        <mxCell id="1" parent="0" />
        <mxCell id="3tm5I7Ox7xEJQ5eaOY4F-1" value="Pessoa" style="swimlane;fontStyle=0;childLayout=stackLayout;horizontal=1;startSize=26;fillColor=none;horizontalStack=0;resizeParent=1;resizeParentMax=0;resizeLast=0;collapsible=1;marginBottom=0;whiteSpace=wrap;html=1;" vertex="1" parent="1">
          <mxGeometry x="150" y="120" width="160" height="170" as="geometry" />
        </mxCell>
        <mxCell id="3tm5I7Ox7xEJQ5eaOY4F-2" value="+ nome: string" style="text;strokeColor=none;fillColor=none;align=left;verticalAlign=top;spacingLeft=4;spacingRight=4;overflow=hidden;rotatable=0;points=[[0,0.5],[1,0.5]];portConstraint=eastwest;whiteSpace=wrap;html=1;" vertex="1" parent="3tm5I7Ox7xEJQ5eaOY4F-1">
          <mxGeometry y="26" width="160" height="26" as="geometry" />
        </mxCell>
        <mxCell id="3tm5I7Ox7xEJQ5eaOY4F-3" value="+ cpf: string" style="text;strokeColor=none;fillColor=none;align=left;verticalAlign=top;spacingLeft=4;spacingRight=4;overflow=hidden;rotatable=0;points=[[0,0.5],[1,0.5]];portConstraint=eastwest;whiteSpace=wrap;html=1;" vertex="1" parent="3tm5I7Ox7xEJQ5eaOY4F-1">
          <mxGeometry y="52" width="160" height="26" as="geometry" />
        </mxCell>
        <mxCell id="3tm5I7Ox7xEJQ5eaOY4F-4" value="+ rg: string&lt;br&gt;&lt;br&gt;+ email: string&lt;br&gt;&lt;br&gt;+ endereco: string" style="text;strokeColor=none;fillColor=none;align=left;verticalAlign=top;spacingLeft=4;spacingRight=4;overflow=hidden;rotatable=0;points=[[0,0.5],[1,0.5]];portConstraint=eastwest;whiteSpace=wrap;html=1;" vertex="1" parent="3tm5I7Ox7xEJQ5eaOY4F-1">
          <mxGeometry y="78" width="160" height="92" as="geometry" />
        </mxCell>
        <mxCell id="3tm5I7Ox7xEJQ5eaOY4F-10" style="edgeStyle=orthogonalEdgeStyle;rounded=0;orthogonalLoop=1;jettySize=auto;html=1;entryX=0.438;entryY=0.978;entryDx=0;entryDy=0;entryPerimeter=0;" edge="1" parent="1" source="3tm5I7Ox7xEJQ5eaOY4F-5" target="3tm5I7Ox7xEJQ5eaOY4F-4">
          <mxGeometry relative="1" as="geometry">
            <Array as="points">
              <mxPoint x="300" y="335" />
              <mxPoint x="220" y="335" />
            </Array>
          </mxGeometry>
        </mxCell>
        <mxCell id="3tm5I7Ox7xEJQ5eaOY4F-5" value="Aluno" style="swimlane;fontStyle=0;childLayout=stackLayout;horizontal=1;startSize=26;fillColor=none;horizontalStack=0;resizeParent=1;resizeParentMax=0;resizeLast=0;collapsible=1;marginBottom=0;whiteSpace=wrap;html=1;" vertex="1" parent="1">
          <mxGeometry x="140" y="380" width="220" height="110" as="geometry" />
        </mxCell>
        <mxCell id="3tm5I7Ox7xEJQ5eaOY4F-6" value="+ instituicaoEnsino: InstituicaoEnsino&lt;br&gt;+ curso: Curso&lt;br&gt;+ meritosRecebidos: List&amp;lt;Merito&amp;gt;&lt;br&gt;+ saldoMoedas: int&lt;br&gt;+ vantagensObtidas: List&amp;lt;Vantagem&amp;gt;" style="text;strokeColor=none;fillColor=none;align=left;verticalAlign=top;spacingLeft=4;spacingRight=4;overflow=hidden;rotatable=0;points=[[0,0.5],[1,0.5]];portConstraint=eastwest;whiteSpace=wrap;html=1;" vertex="1" parent="3tm5I7Ox7xEJQ5eaOY4F-5">
          <mxGeometry y="26" width="220" height="84" as="geometry" />
        </mxCell>
        <mxCell id="3tm5I7Ox7xEJQ5eaOY4F-32" style="edgeStyle=orthogonalEdgeStyle;rounded=0;orthogonalLoop=1;jettySize=auto;html=1;entryX=0.5;entryY=0;entryDx=0;entryDy=0;" edge="1" parent="1" source="3tm5I7Ox7xEJQ5eaOY4F-11" target="3tm5I7Ox7xEJQ5eaOY4F-28">
          <mxGeometry relative="1" as="geometry">
            <Array as="points">
              <mxPoint x="500" y="90" />
              <mxPoint x="-125" y="90" />
            </Array>
          </mxGeometry>
        </mxCell>
        <mxCell id="3tm5I7Ox7xEJQ5eaOY4F-11" value="Professor" style="swimlane;fontStyle=0;childLayout=stackLayout;horizontal=1;startSize=26;fillColor=none;horizontalStack=0;resizeParent=1;resizeParentMax=0;resizeLast=0;collapsible=1;marginBottom=0;whiteSpace=wrap;html=1;" vertex="1" parent="1">
          <mxGeometry x="430" y="160" width="140" height="110" as="geometry" />
        </mxCell>
        <mxCell id="3tm5I7Ox7xEJQ5eaOY4F-12" value="+ departamento: string&lt;br&gt;+ curso: Curso&lt;br&gt;+ saldoMoedas: int&lt;br&gt;+ meritosEnviados: List&amp;lt;Merito&amp;gt;" style="text;strokeColor=none;fillColor=none;align=left;verticalAlign=top;spacingLeft=4;spacingRight=4;overflow=hidden;rotatable=0;points=[[0,0.5],[1,0.5]];portConstraint=eastwest;whiteSpace=wrap;html=1;" vertex="1" parent="3tm5I7Ox7xEJQ5eaOY4F-11">
          <mxGeometry y="26" width="140" height="84" as="geometry" />
        </mxCell>
        <mxCell id="3tm5I7Ox7xEJQ5eaOY4F-13" style="edgeStyle=orthogonalEdgeStyle;rounded=0;orthogonalLoop=1;jettySize=auto;html=1;entryX=1.006;entryY=0.283;entryDx=0;entryDy=0;entryPerimeter=0;" edge="1" parent="1" source="3tm5I7Ox7xEJQ5eaOY4F-12" target="3tm5I7Ox7xEJQ5eaOY4F-4">
          <mxGeometry relative="1" as="geometry" />
        </mxCell>
        <mxCell id="3tm5I7Ox7xEJQ5eaOY4F-14" value="Merito" style="swimlane;fontStyle=0;childLayout=stackLayout;horizontal=1;startSize=26;fillColor=none;horizontalStack=0;resizeParent=1;resizeParentMax=0;resizeLast=0;collapsible=1;marginBottom=0;whiteSpace=wrap;html=1;" vertex="1" parent="1">
          <mxGeometry x="430" y="380" width="150" height="110" as="geometry" />
        </mxCell>
        <mxCell id="3tm5I7Ox7xEJQ5eaOY4F-16" value="" style="endArrow=diamondThin;endFill=0;endSize=24;html=1;rounded=0;entryX=0.995;entryY=0.405;entryDx=0;entryDy=0;entryPerimeter=0;" edge="1" parent="3tm5I7Ox7xEJQ5eaOY4F-14" target="3tm5I7Ox7xEJQ5eaOY4F-6">
          <mxGeometry width="160" relative="1" as="geometry">
            <mxPoint y="60" as="sourcePoint" />
            <mxPoint x="160" y="60" as="targetPoint" />
            <Array as="points" />
          </mxGeometry>
        </mxCell>
        <mxCell id="3tm5I7Ox7xEJQ5eaOY4F-15" value="+ nomeProfessor: string&lt;br&gt;+ nomeAluno: string&lt;br&gt;+ dataCriacao: Date" style="text;strokeColor=none;fillColor=none;align=left;verticalAlign=top;spacingLeft=4;spacingRight=4;overflow=hidden;rotatable=0;points=[[0,0.5],[1,0.5]];portConstraint=eastwest;whiteSpace=wrap;html=1;" vertex="1" parent="3tm5I7Ox7xEJQ5eaOY4F-14">
          <mxGeometry y="26" width="150" height="84" as="geometry" />
        </mxCell>
        <mxCell id="3tm5I7Ox7xEJQ5eaOY4F-17" value="" style="endArrow=diamondThin;endFill=0;endSize=24;html=1;rounded=0;exitX=0.5;exitY=0;exitDx=0;exitDy=0;entryX=0.543;entryY=1.036;entryDx=0;entryDy=0;entryPerimeter=0;" edge="1" parent="1" source="3tm5I7Ox7xEJQ5eaOY4F-14" target="3tm5I7Ox7xEJQ5eaOY4F-12">
          <mxGeometry width="160" relative="1" as="geometry">
            <mxPoint x="440" y="450" as="sourcePoint" />
            <mxPoint x="370" y="453" as="targetPoint" />
          </mxGeometry>
        </mxCell>
        <mxCell id="3tm5I7Ox7xEJQ5eaOY4F-18" value="Vantagem" style="swimlane;fontStyle=0;childLayout=stackLayout;horizontal=1;startSize=26;fillColor=none;horizontalStack=0;resizeParent=1;resizeParentMax=0;resizeLast=0;collapsible=1;marginBottom=0;whiteSpace=wrap;html=1;" vertex="1" parent="1">
          <mxGeometry x="100" y="560" width="150" height="110" as="geometry" />
        </mxCell>
        <mxCell id="3tm5I7Ox7xEJQ5eaOY4F-20" value="+ descricao: string&lt;br&gt;+ linkFoto: string&lt;br&gt;+ custo: float&lt;br&gt;+ dataCriacao: Date&lt;br&gt;+ empresa: Empresa" style="text;strokeColor=none;fillColor=none;align=left;verticalAlign=top;spacingLeft=4;spacingRight=4;overflow=hidden;rotatable=0;points=[[0,0.5],[1,0.5]];portConstraint=eastwest;whiteSpace=wrap;html=1;" vertex="1" parent="3tm5I7Ox7xEJQ5eaOY4F-18">
          <mxGeometry y="26" width="150" height="84" as="geometry" />
        </mxCell>
        <mxCell id="3tm5I7Ox7xEJQ5eaOY4F-31" style="edgeStyle=orthogonalEdgeStyle;rounded=0;orthogonalLoop=1;jettySize=auto;html=1;entryX=0.5;entryY=1;entryDx=0;entryDy=0;entryPerimeter=0;" edge="1" parent="1" source="3tm5I7Ox7xEJQ5eaOY4F-21" target="3tm5I7Ox7xEJQ5eaOY4F-29">
          <mxGeometry relative="1" as="geometry" />
        </mxCell>
        <mxCell id="3tm5I7Ox7xEJQ5eaOY4F-21" value="Empresa" style="swimlane;fontStyle=0;childLayout=stackLayout;horizontal=1;startSize=26;fillColor=none;horizontalStack=0;resizeParent=1;resizeParentMax=0;resizeLast=0;collapsible=1;marginBottom=0;whiteSpace=wrap;html=1;" vertex="1" parent="1">
          <mxGeometry x="-260" y="550" width="270" height="110" as="geometry" />
        </mxCell>
        <mxCell id="3tm5I7Ox7xEJQ5eaOY4F-22" value="+ nomeFantasia: string&lt;br&gt;+ vantagensCadastradas: List&amp;lt;Vantagem&amp;gt;" style="text;strokeColor=none;fillColor=none;align=left;verticalAlign=top;spacingLeft=4;spacingRight=4;overflow=hidden;rotatable=0;points=[[0,0.5],[1,0.5]];portConstraint=eastwest;whiteSpace=wrap;html=1;" vertex="1" parent="3tm5I7Ox7xEJQ5eaOY4F-21">
          <mxGeometry y="26" width="270" height="84" as="geometry" />
        </mxCell>
        <mxCell id="3tm5I7Ox7xEJQ5eaOY4F-23" value="" style="endArrow=diamondThin;endFill=0;endSize=24;html=1;rounded=0;entryX=0.482;entryY=1.071;entryDx=0;entryDy=0;entryPerimeter=0;exitX=0.447;exitY=-0.027;exitDx=0;exitDy=0;exitPerimeter=0;" edge="1" parent="1" source="3tm5I7Ox7xEJQ5eaOY4F-18" target="3tm5I7Ox7xEJQ5eaOY4F-6">
          <mxGeometry width="160" relative="1" as="geometry">
            <mxPoint x="60" y="520" as="sourcePoint" />
            <mxPoint x="220" y="520" as="targetPoint" />
            <Array as="points">
              <mxPoint x="167" y="520" />
              <mxPoint x="246" y="520" />
            </Array>
          </mxGeometry>
        </mxCell>
        <mxCell id="3tm5I7Ox7xEJQ5eaOY4F-24" value="" style="endArrow=diamondThin;endFill=1;endSize=24;html=1;rounded=0;entryX=0;entryY=0.5;entryDx=0;entryDy=0;exitX=1.007;exitY=0.631;exitDx=0;exitDy=0;exitPerimeter=0;" edge="1" parent="1" source="3tm5I7Ox7xEJQ5eaOY4F-22" target="3tm5I7Ox7xEJQ5eaOY4F-20">
          <mxGeometry width="160" relative="1" as="geometry">
            <mxPoint x="250" y="720" as="sourcePoint" />
            <mxPoint x="410" y="720" as="targetPoint" />
          </mxGeometry>
        </mxCell>
        <mxCell id="3tm5I7Ox7xEJQ5eaOY4F-25" value="Email" style="swimlane;fontStyle=0;childLayout=stackLayout;horizontal=1;startSize=26;fillColor=none;horizontalStack=0;resizeParent=1;resizeParentMax=0;resizeLast=0;collapsible=1;marginBottom=0;whiteSpace=wrap;html=1;" vertex="1" parent="1">
          <mxGeometry x="380" y="540" width="150" height="110" as="geometry" />
        </mxCell>
        <mxCell id="3tm5I7Ox7xEJQ5eaOY4F-27" value="+ codigoTransacao: string&lt;br&gt;+ remetente: string&lt;br&gt;+ destinatario: string" style="text;strokeColor=none;fillColor=none;align=left;verticalAlign=top;spacingLeft=4;spacingRight=4;overflow=hidden;rotatable=0;points=[[0,0.5],[1,0.5]];portConstraint=eastwest;whiteSpace=wrap;html=1;" vertex="1" parent="3tm5I7Ox7xEJQ5eaOY4F-25">
          <mxGeometry y="26" width="150" height="84" as="geometry" />
        </mxCell>
        <mxCell id="3tm5I7Ox7xEJQ5eaOY4F-28" value="Usuario" style="swimlane;fontStyle=0;childLayout=stackLayout;horizontal=1;startSize=26;fillColor=none;horizontalStack=0;resizeParent=1;resizeParentMax=0;resizeLast=0;collapsible=1;marginBottom=0;whiteSpace=wrap;html=1;" vertex="1" parent="1">
          <mxGeometry x="-200" y="250" width="150" height="110" as="geometry" />
        </mxCell>
        <mxCell id="3tm5I7Ox7xEJQ5eaOY4F-29" value="+ login: string&lt;br&gt;+ senha: string" style="text;strokeColor=none;fillColor=none;align=left;verticalAlign=top;spacingLeft=4;spacingRight=4;overflow=hidden;rotatable=0;points=[[0,0.5],[1,0.5]];portConstraint=eastwest;whiteSpace=wrap;html=1;" vertex="1" parent="3tm5I7Ox7xEJQ5eaOY4F-28">
          <mxGeometry y="26" width="150" height="84" as="geometry" />
        </mxCell>
        <mxCell id="3tm5I7Ox7xEJQ5eaOY4F-30" style="edgeStyle=orthogonalEdgeStyle;rounded=0;orthogonalLoop=1;jettySize=auto;html=1;entryX=1;entryY=0.5;entryDx=0;entryDy=0;" edge="1" parent="1" source="3tm5I7Ox7xEJQ5eaOY4F-6" target="3tm5I7Ox7xEJQ5eaOY4F-29">
          <mxGeometry relative="1" as="geometry" />
        </mxCell>
      </root>
    </mxGraphModel>
  </diagram>
</mxfile>
